<svg xmlns="http://www.w3.org/2000/svg" width="265" height="31" fill="none"><path fill="#524BF2" d="M0 8a8 8 0 0 1 8-8h25v31H8a8 8 0 0 1-8-8V8Z"/><path fill="#C7CFD9" d="M12.692 10.305c.98 0 1.721.387 2.222 1.163.5.771.75 1.858.75 3.261 0 1.412-.25 2.507-.75 3.286-.5.78-1.241 1.17-2.222 1.17-.984 0-1.727-.39-2.227-1.17-.497-.78-.745-1.875-.745-3.286 0-1.403.248-2.49.745-3.261.5-.776 1.243-1.163 2.227-1.163Zm0 1.206c-.463 0-.814.248-1.052.744-.234.493-.35 1.317-.35 2.474 0 .817.038 1.453.116 1.908l2.265-4.665a.934.934 0 0 0-.406-.357c-.16-.07-.351-.104-.573-.104Zm1.397 3.218c0-.652-.024-1.185-.074-1.6l-2.203 4.523a.883.883 0 0 0 .376.253c.147.049.316.073.504.073.468 0 .817-.246 1.046-.738.234-.492.351-1.33.351-2.51Zm8.928 3.022V19h-5.311v-1.25h2.061v-5.624l-1.815 1.126-.695-1.126 2.67-1.637h1.434v7.262h1.656Z"/><path fill="#151618" d="M33 0h224a8 8 0 0 1 8 8v15a8 8 0 0 1-8 8H33V0Z"/><path fill="#AE95EF" d="M53.27 17.88c.288 0 .557-.053.807-.16.25-.107.494-.242.732-.406l.739 1.04a3.599 3.599 0 0 1-1.04.597 3.61 3.61 0 0 1-1.305.234c-.685 0-1.272-.142-1.76-.425a2.823 2.823 0 0 1-1.114-1.194c-.258-.513-.388-1.107-.388-1.784 0-.67.132-1.266.394-1.791a3.028 3.028 0 0 1 1.133-1.237c.492-.304 1.079-.455 1.76-.455.467 0 .89.067 1.267.203.382.13.73.328 1.047.59l-.72.997a3.237 3.237 0 0 0-.751-.381 2.39 2.39 0 0 0-.794-.136c-.48 0-.872.175-1.175.523-.3.345-.45.907-.45 1.686 0 .772.154 1.315.462 1.631.308.312.693.468 1.157.468Zm6.811-5.581c.648 0 1.198.141 1.65.424.45.283.793.683 1.027 1.2.238.513.357 1.114.357 1.803 0 1.059-.265 1.9-.794 2.523-.529.624-1.278.936-2.246.936s-1.717-.306-2.246-.917c-.53-.616-.794-1.459-.794-2.53 0-.68.12-1.28.357-1.796a2.759 2.759 0 0 1 1.034-1.207c.455-.29 1.007-.436 1.655-.436Zm0 1.224c-.455 0-.796.178-1.021.536-.222.356-.333.916-.333 1.68 0 .77.111 1.335.333 1.692.221.353.56.529 1.015.529.456 0 .794-.176 1.015-.53.222-.356.333-.924.333-1.704 0-.759-.111-1.315-.333-1.668-.221-.357-.557-.535-1.009-.535ZM64.756 19v-6.517h1.416l.117.806c.562-.66 1.251-.99 2.067-.99.583 0 1.028.17 1.336.51.312.337.468.81.468 1.422V19h-1.625v-4.135c0-.493-.051-.841-.154-1.046-.099-.206-.312-.308-.64-.308-.267 0-.515.084-.745.252-.23.168-.434.373-.615.616V19h-1.625Zm9.863-1.015c.382 0 .687-.066.917-.197.234-.132.35-.32.35-.567a.678.678 0 0 0-.116-.4c-.074-.114-.222-.219-.443-.313a7.25 7.25 0 0 0-.997-.326 5.635 5.635 0 0 1-1.102-.394 1.979 1.979 0 0 1-.732-.616c-.172-.25-.258-.566-.258-.947 0-.566.238-1.028.713-1.385.476-.361 1.141-.541 1.994-.541.558 0 1.047.073 1.465.221.418.144.777.324 1.077.542l-.665.99a3.812 3.812 0 0 0-.855-.406 2.95 2.95 0 0 0-.985-.16c-.381 0-.66.055-.837.166a.52.52 0 0 0-.258.462c0 .14.043.258.13.357.09.094.25.186.48.277.233.086.565.19.996.314.423.119.79.256 1.102.412.316.156.56.363.732.621.172.255.258.591.258 1.01 0 .471-.137.861-.412 1.169-.275.307-.638.537-1.09.69a4.662 4.662 0 0 1-1.458.22c-.615 0-1.153-.088-1.612-.264a3.87 3.87 0 0 1-1.17-.683l.844-.948c.254.201.544.367.868.499a2.84 2.84 0 0 0 1.064.197Zm7.61-5.686c.649 0 1.199.141 1.65.424.451.283.794.683 1.028 1.2.238.513.357 1.114.357 1.803 0 1.059-.265 1.9-.794 2.523-.53.624-1.278.936-2.246.936-.969 0-1.717-.306-2.247-.917-.529-.616-.793-1.459-.793-2.53 0-.68.118-1.28.356-1.796a2.758 2.758 0 0 1 1.034-1.207c.456-.29 1.008-.436 1.656-.436Zm0 1.224c-.455 0-.795.178-1.02.536-.222.356-.333.916-.333 1.68 0 .77.11 1.335.332 1.692.222.353.56.529 1.016.529.455 0 .793-.176 1.015-.53.221-.356.332-.924.332-1.704 0-.759-.11-1.315-.332-1.668-.222-.357-.558-.535-1.01-.535Zm7.777-3.643v7.225c0 .283.085.484.253.603.168.119.391.178.67.178.177 0 .347-.018.511-.055.164-.041.32-.09.468-.148l.4 1.108a3.668 3.668 0 0 1-.75.277 3.95 3.95 0 0 1-1.016.117c-.71 0-1.247-.203-1.613-.61-.365-.406-.547-.953-.547-1.643v-5.901H86.43V9.88h3.575Zm5.666 6.357c.05.611.23 1.052.542 1.323.312.27.691.406 1.138.406.312 0 .605-.05.88-.148.275-.098.546-.235.813-.412l.677.93c-.304.254-.667.459-1.09.615-.418.156-.88.234-1.384.234-.706 0-1.3-.146-1.785-.437a2.788 2.788 0 0 1-1.09-1.213c-.245-.517-.368-1.111-.368-1.784 0-.648.119-1.233.357-1.754.242-.521.59-.933 1.046-1.237.46-.308 1.01-.461 1.655-.461.894 0 1.604.29 2.13.873.524.583.787 1.389.787 2.419 0 .238-.01.453-.03.646h-4.278Zm1.397-2.794c-.394 0-.718.142-.972.425-.25.283-.398.726-.443 1.329h2.744c-.008-.55-.12-.978-.338-1.286-.218-.312-.548-.468-.99-.468Z"/><path fill="#fff" d="M103.098 17.91c0-.344.123-.641.369-.892.247-.25.546-.375.899-.375.357 0 .658.125.904.375.247.25.37.548.37.893 0 .348-.123.648-.37.898-.246.25-.547.376-.904.376-.353 0-.652-.125-.899-.376a1.236 1.236 0 0 1-.369-.898Zm141.541-5.42c.337 0 .618.116.843.35.23.234.345.51.345.83 0 .325-.115.604-.345.838-.225.234-.506.35-.843.35-.332 0-.613-.117-.843-.35a1.151 1.151 0 0 1-.344-.837c0-.32.114-.597.344-.831.23-.234.511-.35.843-.35Zm0 4.22a1.153 1.153 0 0 1 1.188 1.176c0 .201-.035.408-.105.622-.069.209-.174.472-.313.787l-.905 2.062h-1.145l.603-2.498c-.34-.222-.51-.548-.51-.979 0-.328.112-.605.338-.83.23-.226.513-.34.849-.34Z"/><path fill="#54D373" d="M112.155 9.88v7.225c0 .283.084.484.252.603.168.119.392.178.671.178.176 0 .347-.018.511-.055.164-.041.32-.09.467-.148l.4 1.108a3.666 3.666 0 0 1-.75.277c-.292.078-.63.117-1.016.117-.71 0-1.247-.203-1.612-.61-.365-.406-.548-.953-.548-1.643v-5.901h-1.951V9.88h3.576Zm6.989 2.418c.648 0 1.198.142 1.649.425.451.283.794.683 1.028 1.2.238.513.357 1.114.357 1.803 0 1.059-.265 1.9-.794 2.523-.529.624-1.278.936-2.246.936-.969 0-1.717-.306-2.247-.917-.529-.616-.793-1.459-.793-2.53 0-.68.119-1.28.357-1.796a2.752 2.752 0 0 1 1.033-1.207c.456-.29 1.008-.436 1.656-.436Zm0 1.225c-.456 0-.796.178-1.022.536-.221.356-.332.916-.332 1.68 0 .77.111 1.335.332 1.692.222.353.56.529 1.016.529.455 0 .793-.176 1.015-.53.222-.356.332-.924.332-1.704 0-.759-.11-1.315-.332-1.668-.222-.357-.558-.535-1.009-.535Zm10.293-1.957.407 1.268a3.964 3.964 0 0 1-.837.184c-.308.033-.659.05-1.053.05.398.172.7.392.905.658.209.267.314.601.314 1.003 0 .423-.109.8-.326 1.133a2.215 2.215 0 0 1-.917.781c-.394.189-.864.283-1.41.283-.311 0-.588-.03-.83-.092a.502.502 0 0 0-.259.461.42.42 0 0 0 .142.314c.098.09.307.136.627.136h1.108c.48 0 .901.082 1.262.246.365.16.648.38.849.658.205.275.308.589.308.942 0 .656-.286 1.169-.856 1.538-.57.37-1.403.554-2.498.554-.784 0-1.395-.08-1.834-.24-.435-.16-.741-.394-.917-.702-.176-.303-.265-.67-.265-1.101h1.447c0 .21.041.381.123.517.086.14.244.24.473.302.23.065.565.098 1.004.098.652 0 1.099-.078 1.341-.234.242-.152.363-.359.363-.622a.623.623 0 0 0-.295-.547c-.197-.131-.476-.197-.837-.197h-1.077c-.657 0-1.134-.127-1.434-.382-.299-.254-.449-.551-.449-.892 0-.23.061-.45.184-.658.128-.214.308-.394.542-.542-.402-.213-.693-.468-.874-.763-.176-.3-.264-.66-.264-1.083 0-.472.118-.882.356-1.23a2.35 2.35 0 0 1 .991-.813c.423-.193.909-.29 1.459-.29.504.005.933-.026 1.286-.092.357-.065.671-.156.941-.27.275-.115.542-.24.8-.376Zm-2.997 1.822c-.385 0-.681.113-.886.338-.201.226-.301.525-.301.899 0 .385.102.69.307.916.21.226.505.339.887.339.763 0 1.144-.425 1.144-1.274 0-.812-.383-1.218-1.151-1.218Z"/><path fill="#CD62C5" d="M133.208 14.692c0 .739.08 1.395.24 1.97.164.574.424 1.126.781 1.655.357.525.831 1.087 1.422 1.686l-.923.862a12.022 12.022 0 0 1-1.699-1.736 7.08 7.08 0 0 1-1.095-1.988c-.254-.721-.382-1.538-.382-2.449 0-.91.128-1.727.382-2.449a7.082 7.082 0 0 1 1.095-1.988 12.025 12.025 0 0 1 1.699-1.735l.923.862a12.168 12.168 0 0 0-1.391 1.655 6.051 6.051 0 0 0-.794 1.668c-.172.582-.258 1.245-.258 1.987Zm104.75 0c0-.742-.086-1.405-.258-1.987a5.959 5.959 0 0 0-.8-1.668 11.81 11.81 0 0 0-1.385-1.655l.923-.862a11.759 11.759 0 0 1 1.692 1.735 6.89 6.89 0 0 1 1.096 1.988c.258.722.387 1.538.387 2.45 0 .91-.129 1.726-.387 2.449a6.888 6.888 0 0 1-1.096 1.987 11.756 11.756 0 0 1-1.692 1.736l-.923-.862c.591-.599 1.065-1.16 1.421-1.686.357-.53.616-1.081.776-1.655.164-.575.246-1.231.246-1.97Z"/><path fill="#E1DB74" d="m139.551 13.24-.222-3.36h1.649l-.215 3.36h-1.212Zm2.246 0-.209-3.36h1.655l-.222 3.36h-1.224Zm5.795-3.514v3.49c.271-.308.574-.538.911-.69.34-.152.695-.227 1.064-.227.599 0 1.049.17 1.348.51.304.337.455.81.455 1.422V19h-1.624v-4.406c0-.394-.062-.673-.185-.837-.119-.164-.324-.246-.615-.246-.263 0-.509.088-.739.264a2.923 2.923 0 0 0-.615.634V19h-1.625V9.886l1.625-.16Zm7.143 6.51c.049.612.23 1.053.541 1.324.312.27.692.406 1.139.406.312 0 .605-.05.88-.148.275-.098.545-.235.812-.412l.677.93c-.304.254-.667.459-1.089.615-.419.156-.88.234-1.385.234-.705 0-1.3-.146-1.784-.437a2.788 2.788 0 0 1-1.09-1.213c-.246-.517-.369-1.111-.369-1.784 0-.648.119-1.233.357-1.754a2.943 2.943 0 0 1 1.046-1.237c.46-.308 1.011-.461 1.656-.461.894 0 1.604.29 2.129.873.525.583.787 1.389.787 2.419 0 .238-.01.453-.03.646h-4.277Zm1.397-2.793c-.394 0-.718.142-.973.425-.25.283-.398.726-.443 1.329h2.745c-.008-.55-.121-.978-.339-1.286-.217-.312-.547-.468-.99-.468Zm7.702-3.563v7.225c0 .283.085.484.253.603.168.119.392.178.671.178.176 0 .346-.018.51-.055.164-.041.32-.09.468-.148l.4 1.108a3.655 3.655 0 0 1-.751.277 3.944 3.944 0 0 1-1.015.117c-.71 0-1.247-.203-1.612-.61-.366-.406-.548-.953-.548-1.643v-5.901h-1.951V9.88h3.575Zm7.383 0v7.225c0 .283.084.484.253.603.168.119.391.178.67.178.177 0 .347-.018.511-.055.164-.041.32-.09.468-.148l.4 1.108a3.677 3.677 0 0 1-.751.277 3.95 3.95 0 0 1-1.015.117c-.71 0-1.247-.203-1.613-.61-.365-.406-.547-.953-.547-1.643v-5.901h-1.951V9.88h3.575Zm6.989 2.418c.648 0 1.198.142 1.65.425.451.283.793.683 1.027 1.2.238.513.357 1.114.357 1.803 0 1.059-.264 1.9-.794 2.523-.529.624-1.278.936-2.246.936s-1.717-.306-2.246-.917c-.529-.616-.794-1.459-.794-2.53 0-.68.119-1.28.357-1.796a2.76 2.76 0 0 1 1.034-1.207c.455-.29 1.007-.436 1.655-.436Zm0 1.225c-.455 0-.796.178-1.021.536-.222.356-.333.916-.333 1.68 0 .77.111 1.335.333 1.692.221.353.56.529 1.015.529.456 0 .794-.176 1.016-.53.221-.356.332-.924.332-1.704 0-.759-.111-1.315-.332-1.668-.222-.357-.558-.535-1.01-.535ZM195.557 19h-1.908l-.659-4.523-.701 4.523h-1.871l-1.04-6.517h1.526l.566 5.508.807-4.683h1.495l.738 4.683.579-5.508h1.464L195.557 19Zm4.798-6.701c.648 0 1.198.141 1.649.424.451.283.794.683 1.028 1.2.238.513.357 1.114.357 1.803 0 1.059-.265 1.9-.794 2.523-.53.624-1.278.936-2.246.936-.969 0-1.717-.306-2.247-.917-.529-.616-.793-1.459-.793-2.53 0-.68.119-1.28.356-1.796a2.76 2.76 0 0 1 1.034-1.207c.456-.29 1.008-.436 1.656-.436Zm0 1.224c-.456 0-.796.178-1.022.536-.221.356-.332.916-.332 1.68 0 .77.111 1.335.332 1.692.222.353.56.529 1.016.529.455 0 .793-.176 1.015-.53.221-.356.332-.924.332-1.704 0-.759-.111-1.315-.332-1.668-.222-.357-.558-.535-1.009-.535ZM205.091 19v-1.126h.917v-4.27h-.917v-1.12h2.154l.302 1.495c.238-.55.537-.967.898-1.25.361-.283.815-.424 1.36-.424.209 0 .394.016.554.049.16.033.316.076.468.13l-.289 2.54h-1.084v-1.273c-.422.037-.787.23-1.095.578-.308.345-.55.8-.726 1.366v2.179h1.298V19h-3.84Zm10.423-9.12v7.225c0 .283.084.484.252.603.169.119.392.178.671.178.177 0 .347-.018.511-.055.164-.041.32-.09.468-.148l.4 1.108a3.677 3.677 0 0 1-.751.277 3.95 3.95 0 0 1-1.015.117c-.71 0-1.248-.203-1.613-.61-.365-.406-.547-.953-.547-1.643v-5.901h-1.951V9.88h3.575Zm8.06-.172 1.625.172V19h-1.44l-.099-.77a2.359 2.359 0 0 1-.757.696 2.104 2.104 0 0 1-1.058.259c-.55 0-1.005-.144-1.366-.431-.357-.287-.624-.69-.8-1.206-.173-.521-.259-1.126-.259-1.816 0-.66.103-1.249.308-1.766.209-.52.506-.93.892-1.224.386-.296.845-.444 1.379-.444.635 0 1.161.22 1.575.659v-3.25Zm-1.139 3.803c-.41 0-.734.178-.972.535-.234.353-.351.917-.351 1.693 0 .82.109 1.396.327 1.729.217.332.51.498.88.498.27 0 .508-.08.713-.24a2.5 2.5 0 0 0 .542-.61v-2.965a1.76 1.76 0 0 0-.511-.468 1.162 1.162 0 0 0-.628-.172Zm5.709-.271-.221-3.36h1.649l-.215 3.36h-1.213Zm2.247 0-.21-3.36h1.656l-.222 3.36h-1.224Z"/></svg>